<?xml version="1.0" encoding="UTF-8"?>
<svg width="100px" height="100px" viewBox="0 0 100 100" version="1.1" xmlns="http://www.w3.org/2000/svg" xmlns:xlink="http://www.w3.org/1999/xlink">
    <!-- Generator: sketchtool 53.2 (72643) - https://sketchapp.com -->
    <title>ED4BC507-3054-4F82-AB7B-9FA452311464</title>
    <desc>Created with sketchtool.</desc>
    <g id="Symbols" stroke="none" stroke-width="1" fill="none" fill-rule="evenodd">
        <g id="ðŸž/Icon/Checkout/Ship-Free-to-My-Address/Active" fill-rule="nonzero">
            <g id="iconfinder_home_718942" transform="translate(18.000000, 20.000000)">
                <path d="M62.1962588,24.0463125 L32,1.9375 L21.3882353,9.7088125 L21.3882353,3.875 C21.3882353,1.73503125 19.6604471,0 17.5294118,0 L15.6,0 C13.4689647,0 11.7411765,1.73503125 11.7411765,3.875 L11.7411765,16.7739062 L1.81145882,24.0463125 C1.81145882,24.0463125 -0.0311294118,25.2020312 0.180141176,27.5289687 C0.304588235,28.9026562 2.18287059,31.0300312 3.33955294,32.3397812 C4.20971765,33.325 6.00503529,33.1748437 6.71312941,32.6914375 C6.79609412,32.6342813 7.21863529,32.3339687 7.88235294,31.8592813 L7.88235294,56.1875 C7.88235294,59.3969687 10.4745176,62 13.6705882,62 L50.3294118,62 C53.5254824,62 56.1176471,59.3969687 56.1176471,56.1875 L56.1176471,31.8534688 C56.7861882,32.3310625 57.2116235,32.63525 57.2955529,32.6914375 C58.0036471,33.1748437 59.8028235,33.3240313 60.6729882,32.3397812 C61.8306353,31.0300312 63.7108471,28.9026562 63.8352941,27.5289687 C64.0465647,25.203 62.1962588,24.0463125 62.1962588,24.0463125 Z" id="Path" fill="#4295F3"></path>
                <path d="M39.7176471,62 L23.3176471,62 L23.3176471,44.5625 C23.3176471,42.4225312 25.0454353,40.6875 27.1764706,40.6875 L35.8588235,40.6875 C37.9898588,40.6875 39.7176471,42.4225312 39.7176471,44.5625 L39.7176471,62 Z" id="Path" fill="#E3EDF0"></path>
            </g>
        </g>
    </g>
</svg>
