<?xml version="1.0" encoding="UTF-8"?>
<svg width="27px" height="27px" viewBox="0 0 27 27" version="1.1" xmlns="http://www.w3.org/2000/svg" xmlns:xlink="http://www.w3.org/1999/xlink">
    <!-- Generator: sketchtool 54.1 (76490) - https://sketchapp.com -->
    <title>67B31791-6D28-4910-99B4-E4ED37A833F1</title>
    <desc>Created with sketchtool.</desc>
    <g id="[MOBILE]-Homepage" stroke="none" stroke-width="1" fill="none" fill-rule="evenodd">
        <g id="Mobile/Shop-by-Size/Steps/Icons/Completed">
            <rect fill="#000000" x="0" y="0" width="27" height="27"></rect>
            <g id="Mobile/Shop-by-Size/Steps/Icons/Filling">
                <rect id="Rectangle" fill="#FFFFFF" x="1" y="0" width="25" height="25" rx="12.5"></rect>
                <path d="M13.2252999,2.89285714 C7.46559332,2.89285714 2.79642857,7.56202189 2.79642857,13.3217285 L2.79642857,13.6782715 C2.79642857,19.4379781 7.46559332,24.1071429 13.2252999,24.1071429 L13.5818429,24.1071429 C19.3415495,24.1071429 24.0107143,19.4379781 24.0107143,13.6782715 L24.0107143,13.3217285 C24.0107143,7.56202189 19.3415495,2.89285714 13.5818429,2.89285714 L13.2252999,2.89285714 Z M13.2247633,0 L13.5823796,0 C20.9394707,0 26.9035714,5.96410074 26.9035714,13.3211919 L26.9035714,13.6788081 C26.9035714,21.0358993 20.9394707,27 13.5823796,27 L13.2247633,27 C5.86767217,27 -0.0964285714,21.0358993 -0.0964285714,13.6788081 L-0.0964285714,13.3211919 C-0.0964285714,5.96410074 5.86767217,0 13.2247633,0 Z" id="Rectangle" fill="#545051" fill-rule="nonzero"></path>
                <g id="iconfinder_OK_342934-(1)" transform="translate(5.000000, 8.000000)" fill="#231F20">
                    <polygon id="Path" points="14.0923077 0.06 5.41538462 8.52 1.90769231 5.16 0.184615385 6.84 5.41538462 11.94 7.13846154 10.26 15.8153846 1.74"></polygon>
                </g>
            </g>
        </g>
    </g>
</svg>
