<?xml version="1.0" encoding="UTF-8"?>
<svg width="28px" height="27px" viewBox="0 0 28 27" version="1.1" xmlns="http://www.w3.org/2000/svg" xmlns:xlink="http://www.w3.org/1999/xlink">
    <!-- Generator: sketchtool 54.1 (76490) - https://sketchapp.com -->
    <title>0E18F9EA-0B6B-4DD1-BCFA-40F01EDC6937</title>
    <desc>Created with sketchtool.</desc>
    <g id="[MOBILE]-Homepage" stroke="none" stroke-width="1" fill="none" fill-rule="evenodd">
        <g id="Mobile/Shop-by-Size" transform="translate(-315.000000, -32.000000)">
            <g id="Group">
                <g id="Mobile/Shop-by-Size/Steps/Icons/Empty" transform="translate(316.000000, 32.000000)">
                    <g id="Mobile/Shop-by-Size/Steps/Icons/Filling">
                        <rect id="Rectangle" fill="#9C9394" x="1" y="1" width="25" height="25" rx="12.5"></rect>
                        <path d="M13.2252999,2.89285714 C7.46559332,2.89285714 2.79642857,7.56202189 2.79642857,13.3217285 L2.79642857,13.6782715 C2.79642857,19.4379781 7.46559332,24.1071429 13.2252999,24.1071429 L13.5818429,24.1071429 C19.3415495,24.1071429 24.0107143,19.4379781 24.0107143,13.6782715 L24.0107143,13.3217285 C24.0107143,7.56202189 19.3415495,2.89285714 13.5818429,2.89285714 L13.2252999,2.89285714 Z M13.2247633,0 L13.5823796,0 C20.9394707,0 26.9035714,5.96410074 26.9035714,13.3211919 L26.9035714,13.6788081 C26.9035714,21.0358993 20.9394707,27 13.5823796,27 L13.2247633,27 C5.86767217,27 -0.0964285714,21.0358993 -0.0964285714,13.6788081 L-0.0964285714,13.3211919 C-0.0964285714,5.96410074 5.86767217,0 13.2247633,0 Z" id="Rectangle" fill="#545051" fill-rule="nonzero"></path>
                    </g>
                </g>
            </g>
        </g>
    </g>
</svg>
