<?xml version="1.0" encoding="UTF-8"?>
<svg width="27px" height="27px" viewBox="0 0 27 27" version="1.1" xmlns="http://www.w3.org/2000/svg" xmlns:xlink="http://www.w3.org/1999/xlink">
    <!-- Generator: sketchtool 54.1 (76490) - https://sketchapp.com -->
    <title>8CFC1FCE-1747-4596-B185-76A33971770D</title>
    <desc>Created with sketchtool.</desc>
    <g id="[MOBILE]-Homepage" stroke="none" stroke-width="1" fill="none" fill-rule="evenodd">
        <g id="Mobile/Shop-by-Size/Steps/Icons/Filling">
            <rect fill="#000000" x="0" y="0" width="27" height="27"></rect>
            <g transform="translate(1.000000, 1.000000)">
                <rect id="Rectangle" fill="#EFA41F" x="0" y="0" width="25" height="25" rx="12.5"></rect>
                <g id="Group" transform="translate(3.973684, 10.368421)" fill="#FFFFFF">
                    <rect id="Rectangle" x="0" y="0" width="4.26315789" height="4.26315789" rx="2.13157895"></rect>
                    <rect id="Rectangle-Copy-2" x="6.39473684" y="0" width="4.26315789" height="4.26315789" rx="2.13157895"></rect>
                    <rect id="Rectangle-Copy-3" x="12.7894737" y="0" width="4.26315789" height="4.26315789" rx="2.13157895"></rect>
                </g>
            </g>
            <path d="M13.2252999,2.89285714 C7.46559332,2.89285714 2.79642857,7.56202189 2.79642857,13.3217285 L2.79642857,13.6782715 C2.79642857,19.4379781 7.46559332,24.1071429 13.2252999,24.1071429 L13.5818429,24.1071429 C19.3415495,24.1071429 24.0107143,19.4379781 24.0107143,13.6782715 L24.0107143,13.3217285 C24.0107143,7.56202189 19.3415495,2.89285714 13.5818429,2.89285714 L13.2252999,2.89285714 Z M13.2247633,0 L13.5823796,0 C20.9394707,0 26.9035714,5.96410074 26.9035714,13.3211919 L26.9035714,13.6788081 C26.9035714,21.0358993 20.9394707,27 13.5823796,27 L13.2247633,27 C5.86767217,27 -0.0964285714,21.0358993 -0.0964285714,13.6788081 L-0.0964285714,13.3211919 C-0.0964285714,5.96410074 5.86767217,0 13.2247633,0 Z" id="Rectangle" fill="#545051" fill-rule="nonzero"></path>
        </g>
    </g>
</svg>
