<?xml version="1.0" encoding="UTF-8"?>
<svg width="100px" height="100px" viewBox="0 0 100 100" version="1.1" xmlns="http://www.w3.org/2000/svg" xmlns:xlink="http://www.w3.org/1999/xlink">
    <!-- Generator: sketchtool 53.2 (72643) - https://sketchapp.com -->
    <title>FB3E7096-C0B5-49E4-900A-52FC1B48B494</title>
    <desc>Created with sketchtool.</desc>
    <g id="Symbols" stroke="none" stroke-width="1" fill="none" fill-rule="evenodd">
        <g id="ðŸž/Icon/Checkout/Ship-Free-to-An-Installer/Active" fill-rule="nonzero">
            <g id="Group" transform="translate(21.000000, 21.000000)">
                <path d="M43.3100332,34.3100332 L43.1100332,34.1100332 L23.8900332,14.8900332 L23.6900332,14.6900332 C23.9006148,13.8089981 24.0046924,12.905873 24.0000332,12.0000332 C24.001626,8.81694733 22.7378554,5.76377488 20.4870735,3.51299298 C18.2362916,1.26221109 15.1831191,-0.00155951838 12.0000332,3.3219412e-05 C10.9497304,-0.00246023986 9.9038052,0.135427007 8.89003322,0.410033219 L13.6900332,5.21003322 L13.3000332,6.66003322 L11.9000332,11.9000332 L6.66003322,13.3000332 L5.21003322,13.6900332 L0.410033219,8.89003322 C0.135427007,9.9038052 -0.00246023986,10.9497304 3.3219412e-05,12.0000332 C-0.00155951838,15.1831191 1.26221109,18.2362916 3.51299298,20.4870735 C5.76377488,22.7378554 8.81694733,24.001626 12.0000332,24.0000332 C12.905873,24.0046924 13.8089981,23.9006148 14.6900332,23.6900332 L14.8900332,23.8900332 L34.1100332,43.1100332 L34.3100332,43.3100332 C34.0994516,44.1910683 33.995374,45.0941934 34.0000332,46.0000332 C34.0000305,49.7314704 35.7358499,53.2505704 38.6966059,55.5215937 C41.657362,57.7926171 45.5060895,58.5570974 49.1100332,57.5900332 L44.3100332,52.7900332 L44.7000332,51.3400332 L46.1000332,46.1000332 L51.3400332,44.7000332 L52.7900332,44.3100332 L57.5900332,49.1100332 C57.8646394,48.0962612 58.0025267,47.050336 58.0000332,46.0000332 C58.001626,42.8169473 56.7378554,39.7637749 54.4870735,37.512993 C52.2362916,35.2622111 49.1831191,33.9984405 46.0000332,34.0000332 C45.0941934,33.995374 44.1910683,34.0994516 43.3100332,34.3100332 Z M37.0000332,41.0000332 L18.0000332,22.0000332 L22.0000332,18.0000332 L41.0000332,37.0000332 L37.0000332,41.0000332 Z" id="Shape" fill="#4295F3"></path>
                <polygon id="Rectangle" fill="#E3EDF0" transform="translate(29.500328, 29.499680) rotate(-45.000000) translate(-29.500328, -29.499680) " points="26.6718275 16.0646797 32.3288275 16.0646797 32.3288275 42.9346797 26.6718275 42.9346797"></polygon>
            </g>
        </g>
    </g>
</svg>
